<svg xmlns="http://www.w3.org/2000/svg" viewBox="0 0 2256.67 456.67"><defs><style>.cls-1{fill:#ec2127;}.cls-2{fill:#6e51a1;}.cls-3{fill:#fff;}</style></defs><title>Asset 1</title><g id="Layer_2" data-name="Layer 2"><g id="Layer_1-2" data-name="Layer 1"><rect class="cls-1" width="1026.67" height="456.67"/><rect class="cls-2" x="1026.67" width="1230" height="456.67"/><path class="cls-3" d="M95.11,386V87.85h68.14L188,241.16,212.22,87.85h69.42V386.38H226.28V242.44L202,386H173.47L149.2,243.71V386Z"/><path class="cls-3" d="M401.73,87.85,446.88,386H392.79l-6-46H345.09l-6.38,46H285.47L330.19,87.85ZM381.29,292.26,366,167.06l-14.48,125.2Z"/><path class="cls-3" d="M509.9,87.85a85.33,85.33,0,0,1,28.32,4.68,67.44,67.44,0,0,1,24.06,14.69q10.65,10,17.68,25.77t9.15,38.33q3,27.69-1.49,46.2t-10.86,29.6q-7.25,13.63-17.46,21.3L594.65,386H540.14l-26-100.08L502.24,288V386H448.58L449,87.85ZM502.24,235.2q9.78-.85,16.18-4.9a35.5,35.5,0,0,0,10.64-10.43,41.2,41.2,0,0,0,6-14.48,80.76,80.76,0,0,0,1.7-16.61A92.68,92.68,0,0,0,535,171.1a54.48,54.48,0,0,0-5.54-15.75,30.61,30.61,0,0,0-10.43-11.29q-6.62-4.25-16.82-4.26Z"/><path class="cls-3" d="M635.53,87.85l23.85,179.71L684.5,87.85h53.66L690.89,386h-63L580.16,87.85Z"/><path class="cls-3" d="M741.57,386V87.85H841.65v52.8H796.5v67.29h45.57V263.3H794v67.29H842.5V386Z"/><path class="cls-3" d="M911.91,87.42V332.3h46v54.08H859.1V87.85Z"/><path class="cls-3" d="M1244.51,87.85v54.08h-53.66V386h-52.38v-244H1081V87.85Z"/><path class="cls-3" d="M1328,87.85a85.41,85.41,0,0,1,28.32,4.68,67.44,67.44,0,0,1,24.06,14.69Q1391,117.24,1398,133t9.16,38.33q3,27.69-1.49,46.2t-10.86,29.6q-7.24,13.63-17.46,21.3L1412.73,386h-54.52l-26-100.08L1320.31,288V386h-53.66l.43-298.11Zm-7.67,147.35q9.8-.85,16.19-4.9a35.61,35.61,0,0,0,10.64-10.43,41,41,0,0,0,6-14.48,80.08,80.08,0,0,0,1.71-16.61,91.89,91.89,0,0,0-1.71-17.68,54.47,54.47,0,0,0-5.53-15.75,30.72,30.72,0,0,0-10.44-11.29q-6.6-4.25-16.82-4.26Z"/><path class="cls-3" d="M1508.54,87.85,1553.68,386H1499.6l-6-46H1451.9l-6.39,46h-53.23L1437,87.85ZM1488.1,292.26l-15.33-125.2-14.48,125.2Z"/><path class="cls-3" d="M1612.87,87.85l23.85,179.71,25.13-179.71h53.66L1668.24,386h-63l-47.7-298.11Z"/><path class="cls-3" d="M1718.92,386V87.85H1819v52.8h-45.14v67.29h45.57V263.3H1771.3v67.29h48.55V386Z"/><path class="cls-3" d="M1896.92,87.85a85.33,85.33,0,0,1,28.32,4.68,67.39,67.39,0,0,1,24.07,14.69q10.64,10,17.67,25.77t9.16,38.33q3,27.69-1.5,46.2t-10.85,29.6q-7.26,13.63-17.47,21.3L1981.67,386h-54.51l-26-100.08L1889.26,288V386H1835.6L1836,87.85Zm-7.66,147.35q9.79-.85,16.18-4.9a35.53,35.53,0,0,0,10.65-10.43,41.37,41.37,0,0,0,6-14.48,80.76,80.76,0,0,0,1.7-16.61,92.68,92.68,0,0,0-1.7-17.68,54.48,54.48,0,0,0-5.54-15.75,30.61,30.61,0,0,0-10.43-11.29q-6.6-4.25-16.82-4.26Z"/><path class="cls-3" d="M2088.56,87.85q.42,0,.42,8.3v18.1q0,11.93-.42,26.83a155.76,155.76,0,0,0-26.62,2.34,94.7,94.7,0,0,0-23.85,7.24,57.53,57.53,0,0,0-17,11.71,22,22,0,0,0-6.6,15.76,17.65,17.65,0,0,0,5.75,13.2,99.93,99.93,0,0,0,14,11.08q8.31,5.53,18.31,12.13a101,101,0,0,1,18.32,15.55,79.59,79.59,0,0,1,14.05,21.72q5.74,12.76,5.75,31.09,0,27.25-10,46.63a90,90,0,0,1-27.25,31.94A117.66,117.66,0,0,1,2013.18,380a192.49,192.49,0,0,1-48.55,6V332.72a103.82,103.82,0,0,0,20-2.55,95.66,95.66,0,0,0,24.06-8.52,66.45,66.45,0,0,0,20.23-15.76q8.5-9.79,8.09-24.27a16.9,16.9,0,0,0-5.54-12.57,90.58,90.58,0,0,0-13.84-10.64q-8.3-5.33-17.67-11.5a92.33,92.33,0,0,1-17.67-15.33,75.3,75.3,0,0,1-13.63-21.93q-5.34-12.78-5.33-31.52a63.08,63.08,0,0,1,11.29-36.2,105.53,105.53,0,0,1,29.17-28.53,158,158,0,0,1,84.75-25.55Z"/><path class="cls-3" d="M2102.61,386V87.85h100.08v52.8h-45.14v67.29h45.56V263.3H2155v67.29h48.55V386Z"/></g></g></svg>