<svg xmlns="http://www.w3.org/2000/svg" viewBox="0 0 2457 456.67"><defs><style>.cls-1{fill:#ec2127;}.cls-2{fill:#6e51a1;}.cls-3{fill:#fff;}</style></defs><title>Asset 2</title><g id="Layer_2" data-name="Layer 2"><g id="Layer_1-2" data-name="Layer 1"><rect class="cls-1" width="1026.67" height="456.67"/><rect class="cls-2" x="1026.67" width="1430.33" height="456.67"/><path class="cls-3" d="M95.11,386V87.85h68.14L188,241.16,212.22,87.85h69.42V386.38H226.28V242.44L202,386H173.47L149.2,243.72V386Z"/><path class="cls-3" d="M401.73,87.85,446.88,386H392.79l-6-46H345.09l-6.39,46H285.47L330.19,87.85ZM381.29,292.26,366,167.06l-14.48,125.2Z"/><path class="cls-3" d="M509.9,87.85a85.33,85.33,0,0,1,28.32,4.68,67.44,67.44,0,0,1,24.06,14.69q10.65,10,17.68,25.77t9.15,38.33q3,27.69-1.49,46.2t-10.86,29.6q-7.25,13.63-17.46,21.3L594.65,386H540.14l-26-100.08L502.24,288V386H448.58L449,87.85ZM502.24,235.2q9.78-.85,16.18-4.9a35.38,35.38,0,0,0,10.64-10.43,41.2,41.2,0,0,0,6-14.48,80.76,80.76,0,0,0,1.7-16.61A92.68,92.68,0,0,0,535,171.1a54.48,54.48,0,0,0-5.54-15.75,30.61,30.61,0,0,0-10.43-11.29q-6.62-4.25-16.82-4.26Z"/><path class="cls-3" d="M635.53,87.85l23.84,179.71L684.5,87.85h53.66L690.89,386h-63L580.16,87.85Z"/><path class="cls-3" d="M741.57,386V87.85H841.65v52.81H796.5v67.28h45.57v55.37H794v67.28H842.5V386Z"/><path class="cls-3" d="M911.91,87.42V332.3h46v54.08H859.1V87.85Z"/><path class="cls-3" d="M1203.32,91.69v41.19h-46.65V387h-48.34V132.88H1062.1V91.69Z"/><path class="cls-3" d="M1273.93,271.87V387h-48.34V91.69h97.51q45.81,0,45.82,46.33v87.52q0,38.39-30.69,44.93L1382.36,387h-52.11L1289.9,271.87Zm0-139v99.21h34.88c4.48,0,7.57-.85,9.25-2.57s2.52-5.07,2.52-10.06v-74q0-7.48-2.52-10.06c-1.68-1.71-4.77-2.57-9.25-2.57Z"/><path class="cls-3" d="M1515.18,387l-10.09-61.31h-58L1437.84,387h-48.33l53.37-295.31H1508L1563.93,387Zm-61.79-102h45l-23.11-141.34Z"/><path class="cls-3" d="M1688.76,91.69h49.59L1685.82,387h-63.47L1569.81,91.69h50l34,238.68Z"/><path class="cls-3" d="M1809.8,345.82h80.7V387H1761.05V91.69h126.09v41.19H1809.8v81.9H1875v41.65H1809.8Z"/><path class="cls-3" d="M1966.57,271.87V387h-48.34V91.69h97.51q45.81,0,45.82,46.33v87.52q0,38.39-30.68,44.93L2075,387h-52.12l-40.35-115.13Zm0-139v99.21h34.88c4.48,0,7.57-.85,9.25-2.57s2.52-5.07,2.52-10.06v-74q0-7.48-2.52-10.06c-1.68-1.71-4.77-2.57-9.25-2.57Z"/><path class="cls-3" d="M2183,333.18V270q0-7.49-2.52-10.06c-1.68-1.71-4.77-2.58-9.25-2.58h-34q-43.3,0-43.29-46.8V138q0-46.32,45.39-46.33h46.23q45.39,0,45.39,46.33v41.19h-48.75v-33.7q0-7.48-2.52-10.06c-1.68-1.71-4.77-2.57-9.25-2.57h-16q-7.16,0-9.67,2.57t-2.52,10.06V205q0,7.49,2.52,10.06t9.67,2.57h33.2q44.13,0,44.13,45.87v77.22q0,46.33-45.81,46.33h-45.39q-45.81,0-45.81-46.33V300h48.33v33.23q0,7.49,2.52,10.06t9.67,2.58h16c4.48,0,7.57-.86,9.25-2.58S2183,338.17,2183,333.18Z"/><path class="cls-3" d="M2315.41,345.82h80.69V387H2266.65V91.69h126.09v41.19h-77.33v81.9h65.14v41.65h-65.14Z"/></g></g></svg>